<mxfile host="app.diagrams.net" modified="2024-06-26T02:59:27.681Z" agent="Mozilla/5.0 (Windows NT 10.0; Win64; x64) AppleWebKit/537.36 (KHTML, like Gecko) Chrome/126.0.0.0 Safari/537.36" etag="iOXROG5gitrZpSZ6n_Av" version="24.6.2" type="github">
  <diagram name="페이지-1" id="EQ6efKA7WiJejvNS8g7J">
    <mxGraphModel dx="1509" dy="777" grid="1" gridSize="10" guides="1" tooltips="1" connect="1" arrows="1" fold="1" page="1" pageScale="1" pageWidth="827" pageHeight="1169" background="#ffffff" math="0" shadow="0">
      <root>
        <mxCell id="0" />
        <mxCell id="1" parent="0" />
        <mxCell id="nvce8nYGoO_pX4KJUv21-1" value="" style="rounded=0;whiteSpace=wrap;html=1;fillColor=#fff2cc;strokeColor=#d6b656;" vertex="1" parent="1">
          <mxGeometry x="200" y="140" width="300" height="330" as="geometry" />
        </mxCell>
        <mxCell id="nvce8nYGoO_pX4KJUv21-2" value="MPSIPX PROCESS" style="rounded=0;whiteSpace=wrap;html=1;" vertex="1" parent="1">
          <mxGeometry x="200" y="130" width="230" height="20" as="geometry" />
        </mxCell>
        <mxCell id="nvce8nYGoO_pX4KJUv21-3" value="Main Thread" style="rounded=0;whiteSpace=wrap;html=1;fillColor=#d5e8d4;strokeColor=#82b366;" vertex="1" parent="1">
          <mxGeometry x="240" y="160" width="230" height="20" as="geometry" />
        </mxCell>
        <mxCell id="nvce8nYGoO_pX4KJUv21-5" value="DetectSroute Thread" style="rounded=0;whiteSpace=wrap;html=1;fillColor=#d5e8d4;strokeColor=#82b366;" vertex="1" parent="1">
          <mxGeometry x="240" y="200" width="230" height="20" as="geometry" />
        </mxCell>
        <mxCell id="nvce8nYGoO_pX4KJUv21-57" style="edgeStyle=orthogonalEdgeStyle;rounded=0;orthogonalLoop=1;jettySize=auto;html=1;exitX=1;exitY=0.25;exitDx=0;exitDy=0;entryX=0;entryY=0.25;entryDx=0;entryDy=0;" edge="1" parent="1" source="nvce8nYGoO_pX4KJUv21-6" target="nvce8nYGoO_pX4KJUv21-56">
          <mxGeometry relative="1" as="geometry" />
        </mxCell>
        <mxCell id="nvce8nYGoO_pX4KJUv21-6" value="TU Thread" style="rounded=0;whiteSpace=wrap;html=1;fillColor=#d5e8d4;strokeColor=#82b366;" vertex="1" parent="1">
          <mxGeometry x="240" y="310" width="150" height="70" as="geometry" />
        </mxCell>
        <mxCell id="nvce8nYGoO_pX4KJUv21-7" value="Inner Module Receive Thread" style="rounded=0;whiteSpace=wrap;html=1;fillColor=#d5e8d4;strokeColor=#82b366;" vertex="1" parent="1">
          <mxGeometry x="240" y="240" width="230" height="20" as="geometry" />
        </mxCell>
        <mxCell id="nvce8nYGoO_pX4KJUv21-59" style="edgeStyle=orthogonalEdgeStyle;rounded=0;orthogonalLoop=1;jettySize=auto;html=1;exitX=0.25;exitY=0;exitDx=0;exitDy=0;fillColor=#1ba1e2;strokeColor=#006EAF;" edge="1" parent="1" source="nvce8nYGoO_pX4KJUv21-8" target="nvce8nYGoO_pX4KJUv21-6">
          <mxGeometry relative="1" as="geometry">
            <Array as="points">
              <mxPoint x="297" y="400" />
              <mxPoint x="315" y="400" />
            </Array>
          </mxGeometry>
        </mxCell>
        <mxCell id="nvce8nYGoO_pX4KJUv21-8" value="Outer Module Receive Thread" style="rounded=0;whiteSpace=wrap;html=1;fillColor=#d5e8d4;strokeColor=#82b366;" vertex="1" parent="1">
          <mxGeometry x="240" y="410" width="230" height="20" as="geometry" />
        </mxCell>
        <mxCell id="nvce8nYGoO_pX4KJUv21-15" style="edgeStyle=orthogonalEdgeStyle;rounded=0;orthogonalLoop=1;jettySize=auto;html=1;exitX=1;exitY=0.5;exitDx=0;exitDy=0;entryX=0;entryY=0.5;entryDx=0;entryDy=0;" edge="1" parent="1" source="nvce8nYGoO_pX4KJUv21-12" target="nvce8nYGoO_pX4KJUv21-7">
          <mxGeometry relative="1" as="geometry" />
        </mxCell>
        <mxCell id="nvce8nYGoO_pX4KJUv21-12" value="MIPSECX" style="rounded=0;whiteSpace=wrap;html=1;fillColor=#fff2cc;strokeColor=#d6b656;" vertex="1" parent="1">
          <mxGeometry x="40" y="235" width="80" height="30" as="geometry" />
        </mxCell>
        <mxCell id="nvce8nYGoO_pX4KJUv21-16" style="edgeStyle=orthogonalEdgeStyle;rounded=0;orthogonalLoop=1;jettySize=auto;html=1;exitX=1;exitY=0.5;exitDx=0;exitDy=0;entryX=0;entryY=0.25;entryDx=0;entryDy=0;" edge="1" parent="1" source="nvce8nYGoO_pX4KJUv21-13" target="nvce8nYGoO_pX4KJUv21-8">
          <mxGeometry relative="1" as="geometry">
            <mxPoint x="240" y="395" as="targetPoint" />
          </mxGeometry>
        </mxCell>
        <mxCell id="nvce8nYGoO_pX4KJUv21-13" value="MPREGRX" style="rounded=0;whiteSpace=wrap;html=1;fillColor=#fff2cc;strokeColor=#d6b656;" vertex="1" parent="1">
          <mxGeometry x="40" y="380" width="80" height="30" as="geometry" />
        </mxCell>
        <mxCell id="nvce8nYGoO_pX4KJUv21-17" style="edgeStyle=orthogonalEdgeStyle;rounded=0;orthogonalLoop=1;jettySize=auto;html=1;exitX=1;exitY=0.5;exitDx=0;exitDy=0;entryX=0;entryY=0.75;entryDx=0;entryDy=0;" edge="1" parent="1" source="nvce8nYGoO_pX4KJUv21-14" target="nvce8nYGoO_pX4KJUv21-8">
          <mxGeometry relative="1" as="geometry" />
        </mxCell>
        <mxCell id="nvce8nYGoO_pX4KJUv21-14" value="MRXCX" style="rounded=0;whiteSpace=wrap;html=1;fillColor=#fff2cc;strokeColor=#d6b656;" vertex="1" parent="1">
          <mxGeometry x="40" y="430" width="80" height="30" as="geometry" />
        </mxCell>
        <mxCell id="nvce8nYGoO_pX4KJUv21-22" value="" style="edgeStyle=orthogonalEdgeStyle;rounded=0;orthogonalLoop=1;jettySize=auto;html=1;exitX=0.5;exitY=1;exitDx=0;exitDy=0;entryX=0.5;entryY=0;entryDx=0;entryDy=0;fillColor=#1ba1e2;strokeColor=#006EAF;" edge="1" parent="1" source="nvce8nYGoO_pX4KJUv21-7" target="nvce8nYGoO_pX4KJUv21-6">
          <mxGeometry x="-0.2" relative="1" as="geometry">
            <mxPoint as="offset" />
          </mxGeometry>
        </mxCell>
        <mxCell id="nvce8nYGoO_pX4KJUv21-23" value="" style="rounded=0;whiteSpace=wrap;html=1;fillColor=#fff2cc;strokeColor=#d6b656;" vertex="1" parent="1">
          <mxGeometry x="200" y="720" width="390" height="440" as="geometry" />
        </mxCell>
        <mxCell id="nvce8nYGoO_pX4KJUv21-24" value="MPREGRX PROCESS" style="rounded=0;whiteSpace=wrap;html=1;" vertex="1" parent="1">
          <mxGeometry x="200" y="710" width="230" height="20" as="geometry" />
        </mxCell>
        <mxCell id="nvce8nYGoO_pX4KJUv21-25" value="Main Thread" style="rounded=0;whiteSpace=wrap;html=1;fillColor=#d5e8d4;strokeColor=#82b366;" vertex="1" parent="1">
          <mxGeometry x="240" y="740" width="230" height="20" as="geometry" />
        </mxCell>
        <mxCell id="nvce8nYGoO_pX4KJUv21-26" value="Inter ATIPC Thread" style="rounded=0;whiteSpace=wrap;html=1;fillColor=#d5e8d4;strokeColor=#82b366;" vertex="1" parent="1">
          <mxGeometry x="240" y="890" width="50" height="130" as="geometry" />
        </mxCell>
        <mxCell id="nvce8nYGoO_pX4KJUv21-27" value="ExpireCheck Thread" style="rounded=0;whiteSpace=wrap;html=1;fillColor=#d5e8d4;strokeColor=#82b366;" vertex="1" parent="1">
          <mxGeometry x="240" y="800" width="230" height="20" as="geometry" />
        </mxCell>
        <mxCell id="nvce8nYGoO_pX4KJUv21-46" style="edgeStyle=orthogonalEdgeStyle;rounded=0;orthogonalLoop=1;jettySize=auto;html=1;exitX=1;exitY=0.25;exitDx=0;exitDy=0;entryX=0.5;entryY=1;entryDx=0;entryDy=0;" edge="1" parent="1" source="nvce8nYGoO_pX4KJUv21-28" target="nvce8nYGoO_pX4KJUv21-41">
          <mxGeometry relative="1" as="geometry" />
        </mxCell>
        <mxCell id="nvce8nYGoO_pX4KJUv21-28" value="Logic Thread" style="rounded=0;whiteSpace=wrap;html=1;fillColor=#d5e8d4;strokeColor=#82b366;" vertex="1" parent="1">
          <mxGeometry x="360" y="918" width="110" height="70" as="geometry" />
        </mxCell>
        <UserObject label="Send Thread" tooltip="Inter ATIPC Handler" id="nvce8nYGoO_pX4KJUv21-29">
          <mxCell style="rounded=0;whiteSpace=wrap;html=1;fillColor=#d5e8d4;strokeColor=#82b366;" vertex="1" parent="1">
            <mxGeometry x="390" y="866" width="80" height="20" as="geometry" />
          </mxCell>
        </UserObject>
        <mxCell id="nvce8nYGoO_pX4KJUv21-44" style="edgeStyle=orthogonalEdgeStyle;rounded=0;orthogonalLoop=1;jettySize=auto;html=1;exitX=1;exitY=0.5;exitDx=0;exitDy=0;entryX=0.5;entryY=1;entryDx=0;entryDy=0;" edge="1" parent="1" source="nvce8nYGoO_pX4KJUv21-32" target="nvce8nYGoO_pX4KJUv21-43">
          <mxGeometry relative="1" as="geometry" />
        </mxCell>
        <UserObject label="Recv Thread" tooltip="Inter ATIPC Handler" id="nvce8nYGoO_pX4KJUv21-32">
          <mxCell style="rounded=0;whiteSpace=wrap;html=1;fillColor=#d5e8d4;strokeColor=#82b366;" vertex="1" parent="1">
            <mxGeometry x="390" y="1021" width="80" height="20" as="geometry" />
          </mxCell>
        </UserObject>
        <mxCell id="nvce8nYGoO_pX4KJUv21-34" value="BindingCount Thread" style="rounded=0;whiteSpace=wrap;html=1;fillColor=#d5e8d4;strokeColor=#82b366;" vertex="1" parent="1">
          <mxGeometry x="240" y="830" width="230" height="20" as="geometry" />
        </mxCell>
        <mxCell id="nvce8nYGoO_pX4KJUv21-36" value="Thread IPC" style="endArrow=classic;html=1;rounded=0;fillColor=#1ba1e2;strokeColor=#006EAF;" edge="1" parent="1">
          <mxGeometry y="-10" width="50" height="50" relative="1" as="geometry">
            <mxPoint x="640" y="140" as="sourcePoint" />
            <mxPoint x="720" y="140" as="targetPoint" />
            <mxPoint as="offset" />
          </mxGeometry>
        </mxCell>
        <mxCell id="nvce8nYGoO_pX4KJUv21-37" value="ATIPC" style="endArrow=classic;html=1;rounded=0;" edge="1" parent="1">
          <mxGeometry y="-10" width="50" height="50" relative="1" as="geometry">
            <mxPoint x="640" y="170" as="sourcePoint" />
            <mxPoint x="720" y="170" as="targetPoint" />
            <mxPoint as="offset" />
          </mxGeometry>
        </mxCell>
        <mxCell id="nvce8nYGoO_pX4KJUv21-40" value="MPSIPX" style="rounded=0;whiteSpace=wrap;html=1;fillColor=#fff2cc;strokeColor=#d6b656;" vertex="1" parent="1">
          <mxGeometry x="50" y="938" width="80" height="30" as="geometry" />
        </mxCell>
        <mxCell id="nvce8nYGoO_pX4KJUv21-47" style="edgeStyle=orthogonalEdgeStyle;rounded=0;orthogonalLoop=1;jettySize=auto;html=1;exitX=0.5;exitY=0;exitDx=0;exitDy=0;entryX=1;entryY=0.5;entryDx=0;entryDy=0;" edge="1" parent="1" source="nvce8nYGoO_pX4KJUv21-41" target="nvce8nYGoO_pX4KJUv21-29">
          <mxGeometry relative="1" as="geometry" />
        </mxCell>
        <mxCell id="nvce8nYGoO_pX4KJUv21-41" value="SendQueue" style="rounded=0;whiteSpace=wrap;html=1;" vertex="1" parent="1">
          <mxGeometry x="500" y="896" width="80" height="20" as="geometry" />
        </mxCell>
        <mxCell id="nvce8nYGoO_pX4KJUv21-45" style="edgeStyle=orthogonalEdgeStyle;rounded=0;orthogonalLoop=1;jettySize=auto;html=1;exitX=0.5;exitY=0;exitDx=0;exitDy=0;entryX=1;entryY=0.75;entryDx=0;entryDy=0;" edge="1" parent="1" source="nvce8nYGoO_pX4KJUv21-43" target="nvce8nYGoO_pX4KJUv21-28">
          <mxGeometry relative="1" as="geometry" />
        </mxCell>
        <mxCell id="nvce8nYGoO_pX4KJUv21-43" value="ReceiveQueue" style="rounded=0;whiteSpace=wrap;html=1;" vertex="1" parent="1">
          <mxGeometry x="495" y="991" width="90" height="20" as="geometry" />
        </mxCell>
        <mxCell id="nvce8nYGoO_pX4KJUv21-48" value="MRXCX" style="rounded=0;whiteSpace=wrap;html=1;fillColor=#fff2cc;strokeColor=#d6b656;" vertex="1" parent="1">
          <mxGeometry x="40" y="780" width="80" height="30" as="geometry" />
        </mxCell>
        <mxCell id="nvce8nYGoO_pX4KJUv21-50" style="edgeStyle=orthogonalEdgeStyle;rounded=0;orthogonalLoop=1;jettySize=auto;html=1;exitX=1;exitY=0.5;exitDx=0;exitDy=0;entryX=0;entryY=0.5;entryDx=0;entryDy=0;fillColor=#d80073;strokeColor=#A50040;" edge="1" parent="1" source="nvce8nYGoO_pX4KJUv21-49" target="nvce8nYGoO_pX4KJUv21-6">
          <mxGeometry relative="1" as="geometry" />
        </mxCell>
        <mxCell id="nvce8nYGoO_pX4KJUv21-49" value="UE" style="rounded=0;whiteSpace=wrap;html=1;fillColor=#fff2cc;strokeColor=#d6b656;" vertex="1" parent="1">
          <mxGeometry x="40" y="310" width="80" height="30" as="geometry" />
        </mxCell>
        <mxCell id="nvce8nYGoO_pX4KJUv21-54" value="Inner ATIPC Thread" style="rounded=0;whiteSpace=wrap;html=1;fillColor=#d5e8d4;strokeColor=#82b366;" vertex="1" parent="1">
          <mxGeometry x="300" y="890" width="50" height="130" as="geometry" />
        </mxCell>
        <mxCell id="nvce8nYGoO_pX4KJUv21-55" value="SIP" style="endArrow=classic;html=1;rounded=0;" edge="1" parent="1">
          <mxGeometry y="-10" width="50" height="50" relative="1" as="geometry">
            <mxPoint x="640" y="199.41" as="sourcePoint" />
            <mxPoint x="720" y="199.41" as="targetPoint" />
            <mxPoint as="offset" />
          </mxGeometry>
        </mxCell>
        <mxCell id="nvce8nYGoO_pX4KJUv21-58" style="edgeStyle=orthogonalEdgeStyle;rounded=0;orthogonalLoop=1;jettySize=auto;html=1;exitX=1;exitY=0.25;exitDx=0;exitDy=0;" edge="1" parent="1" source="nvce8nYGoO_pX4KJUv21-56">
          <mxGeometry relative="1" as="geometry">
            <mxPoint x="550" y="327.5" as="targetPoint" />
          </mxGeometry>
        </mxCell>
        <mxCell id="nvce8nYGoO_pX4KJUv21-56" value="Local Thread" style="rounded=0;whiteSpace=wrap;html=1;fillColor=#d5e8d4;strokeColor=#82b366;" vertex="1" parent="1">
          <mxGeometry x="414" y="310" width="66" height="70" as="geometry" />
        </mxCell>
      </root>
    </mxGraphModel>
  </diagram>
</mxfile>
